<svg width="13" height="8" viewBox="0 0 13 8" fill="none" xmlns="http://www.w3.org/2000/svg">
<path fill-rule="evenodd" clip-rule="evenodd" d="M0.966672 2.03817L6.02667 7.09817C6.28667 7.35817 6.70667 7.35817 6.96667 7.09817L11.1667 2.89817V5.29817C11.1667 5.66483 11.4667 5.96483 11.8333 5.96483C12.2 5.96483 12.5 5.66483 12.5 5.29817V1.29817C12.5 0.9315 12.2 0.6315 11.8333 0.6315H7.83334C7.46667 0.6315 7.16667 0.9315 7.16667 1.29817C7.16667 1.66483 7.46667 1.96483 7.83334 1.96483H10.2267L6.50001 5.6915L1.90667 1.09817C1.64667 0.838167 1.22667 0.838167 0.966672 1.09817C0.713339 1.35817 0.713339 1.78483 0.966672 2.03817Z" fill="white"/>
</svg>
