<svg width="9" height="9" viewBox="0 0 9 9" fill="none" xmlns="http://www.w3.org/2000/svg">
<path fill-rule="evenodd" clip-rule="evenodd" d="M8.69998 0.2891C8.43998 0.0290995 8.01998 0.0290995 7.75998 0.2891L4.49998 3.54243L1.23998 0.282433C0.97998 0.0224329 0.55998 0.0224329 0.29998 0.282433C0.0399805 0.542433 0.0399805 0.962433 0.29998 1.22243L3.55998 4.48243L0.29998 7.74243C0.0399805 8.00243 0.0399805 8.42243 0.29998 8.68243C0.55998 8.94243 0.97998 8.94243 1.23998 8.68243L4.49998 5.42243L7.75998 8.68243C8.01998 8.94243 8.43998 8.94243 8.69998 8.68243C8.95998 8.42243 8.95998 8.00243 8.69998 7.74243L5.43998 4.48243L8.69998 1.22243C8.95331 0.9691 8.95331 0.542433 8.69998 0.2891Z" fill="white"/>
</svg>
